<svg width="16" height="16" viewBox="0 0 16 16" fill="none" xmlns="http://www.w3.org/2000/svg">
<g clip-path="url(#clip0_718_447)">
<path d="M0.371704 15.6595L1.44885 11.726C0.784424 10.5748 0.434937 9.2689 0.435425 7.93101C0.437134 3.7456 3.84314 0.340454 8.02845 0.340454C10.0595 0.341309 11.9658 1.13183 13.3994 2.56664C14.8329 4.00146 15.6221 5.90868 15.6214 7.93711C15.6195 12.1224 12.213 15.528 8.02845 15.528C8.02821 15.528 8.02858 15.528 8.02845 15.528H8.02516C6.7544 15.5275 5.50587 15.2088 4.39686 14.604L0.371704 15.6595ZM4.58326 13.2298L4.81385 13.3664C5.7826 13.9414 6.89332 14.2454 8.02601 14.2461H8.02845C11.5067 14.2461 14.3378 11.4155 14.3393 7.93663C14.3399 6.25072 13.6841 4.66539 12.4926 3.47289C11.3009 2.28039 9.71657 1.62329 8.03077 1.62256C4.54969 1.62256 1.71875 4.45275 1.71741 7.9315C1.71692 9.12364 2.05042 10.2845 2.68225 11.2892L2.8324 11.5279L2.1947 13.856L4.58326 13.2298Z" fill="black"/>
<path d="M0.371704 15.6595L1.44885 11.726C0.784424 10.5748 0.434937 9.2689 0.435425 7.93101C0.437134 3.7456 3.84314 0.340454 8.02845 0.340454C10.0595 0.341309 11.9658 1.13183 13.3994 2.56664C14.8329 4.00146 15.6221 5.90868 15.6214 7.93711C15.6195 12.1224 12.213 15.528 8.02845 15.528C8.02821 15.528 8.02858 15.528 8.02845 15.528H8.02516C6.7544 15.5275 5.50587 15.2088 4.39686 14.604L0.371704 15.6595ZM4.58326 13.2298L4.81385 13.3664C5.7826 13.9414 6.89332 14.2454 8.02601 14.2461H8.02845C11.5067 14.2461 14.3378 11.4155 14.3393 7.93663C14.3399 6.25072 13.6841 4.66539 12.4926 3.47289C11.3009 2.28039 9.71657 1.62329 8.03077 1.62256C4.54969 1.62256 1.71875 4.45275 1.71741 7.9315C1.71692 9.12364 2.05042 10.2845 2.68225 11.2892L2.8324 11.5279L2.1947 13.856L4.58326 13.2298Z" fill="black"/>
<path fill-rule="evenodd" clip-rule="evenodd" d="M6.13073 4.75769C5.98864 4.44177 5.83899 4.43543 5.70373 4.42993C5.59314 4.42517 5.46655 4.42542 5.34021 4.42542C5.21374 4.42542 5.00818 4.47302 4.83435 4.66285C4.6604 4.85267 4.17017 5.31165 4.17017 6.24513C4.17017 7.17873 4.8501 8.08071 4.94494 8.20742C5.03979 8.33401 6.25744 10.3108 8.18578 11.0713C9.78844 11.7034 10.1145 11.5777 10.4624 11.5461C10.8103 11.5144 11.5848 11.0871 11.7429 10.6441C11.9011 10.2011 11.9011 9.82144 11.8536 9.74197C11.8061 9.66299 11.6797 9.61551 11.49 9.52066C11.3003 9.42581 10.3675 8.9667 10.1936 8.90347C10.0196 8.84011 9.89317 8.80862 9.76671 8.99856C9.64012 9.18826 9.27684 9.61551 9.16613 9.74197C9.05541 9.8688 8.94469 9.88467 8.75499 9.7897C8.5653 9.69461 7.95421 9.49441 7.22936 8.84805C6.6654 8.34524 6.28454 7.72414 6.17382 7.5342C6.06323 7.3445 6.17199 7.25075 6.2572 7.14711C6.41064 6.96046 6.66808 6.62489 6.73132 6.49843C6.79455 6.37172 6.76293 6.261 6.71557 6.16603C6.66808 6.07118 6.29931 5.13294 6.13073 4.75769Z" fill="black"/>
</g>
<defs>
<clipPath id="clip0_718_447">
<rect width="16" height="16" fill="white"/>
</clipPath>
</defs>
</svg>
