<svg width="17" height="15" viewBox="0 0 17 15" fill="none" xmlns="http://www.w3.org/2000/svg">
<path d="M6.49909 2.78125H5.44103V1.69792C5.44103 1.05358 5.92629 0.53125 6.5249 0.53125H10.0604C10.659 0.53125 11.1443 1.05358 11.1443 1.69792V2.78125H10.112V1.67014H6.49909V2.78125Z" fill="black"/>
<path fill-rule="evenodd" clip-rule="evenodd" d="M0.305542 5.36458C0.305542 6.72569 3.97006 8.14236 5.87973 8.44791V8.36458C5.87973 7.90434 6.22635 7.53125 6.65393 7.53125H9.93135C10.3589 7.53125 10.7055 7.90434 10.7055 8.36458V8.44792C12.6152 8.14236 16.3055 6.72569 16.3055 5.36458C16.3055 4.28126 16.3055 3.44791 15.7378 3.44791H0.873284C0.305547 3.44791 0.305545 4.28126 0.305542 5.36458ZM5.87973 9.17014C4.435 8.80296 1.86693 8.15029 0.795865 7.09461V13.809C0.795865 14.1424 1.05393 14.5312 1.31199 14.5312H15.2991C15.5572 14.5312 15.8152 14.1424 15.8152 13.809V7.09461C14.7529 8.14166 12.1926 8.79227 10.7412 9.16108L10.7055 9.17014V9.78125C10.7055 10.2415 10.3589 10.6146 9.93135 10.6146H6.65393C6.22635 10.6146 5.87973 10.2415 5.87973 9.78125V9.17014ZM6.44748 9.64237V8.41997C6.44748 8.26656 6.56302 8.14236 6.70554 8.14236H9.90554C10.0481 8.14236 10.1636 8.26672 10.1636 8.42014V9.64236C10.1636 9.79577 10.0481 9.92014 9.90554 9.92014H6.70554C6.56302 9.92014 6.44748 9.79579 6.44748 9.64237Z" fill="black"/>
</svg>
