<svg width="19" height="13" viewBox="0 0 19 13" fill="none" xmlns="http://www.w3.org/2000/svg">
<path d="M0.75 5.17409L9.08073 0.310979C9.5064 0.0624914 10.0367 0.0630444 10.4619 0.312419L18.75 5.17409L15.7065 6.96512V6.02696C15.7065 5.70713 15.2717 5.05396 15.0326 4.93955C12.3587 3.66024 7.38043 3.4257 4.46739 4.93955C4.1413 5.10901 3.81522 5.60052 3.81522 6.02696V6.96512L0.75 5.17409Z" fill="black"/>
<path fill-rule="evenodd" clip-rule="evenodd" d="M9.75 11.0163C13.1848 11.0163 15.163 10.0781 15.2283 9.39581V6.02696C15.2283 4.93955 11.4674 4.32121 9.75 4.32121C8.03261 4.32121 4.27174 4.81162 4.27174 6.02696V9.39581C4.27174 10.1421 6.57609 11.0163 9.75 11.0163ZM14.8152 9.26788C14.8152 10.0781 11.7991 10.609 9.75 10.6112C7.69268 10.6133 4.66304 10.0994 4.66304 9.26788C4.66304 8.43633 7.69268 7.92243 9.75 7.9246C11.7991 7.92677 14.8152 8.45765 14.8152 9.26788Z" fill="black"/>
<path d="M1.96743 6.36811L1.61961 6.15489V7.51949C1.61961 7.51949 1.2283 7.66874 1.2283 8.03121C1.2283 8.35104 1.53265 8.56426 1.53265 8.56426C1.53265 8.56426 0.750011 9.45977 0.750042 10.803C0.750058 11.4611 1.05435 12.125 1.81526 12.125C2.51087 12.125 2.837 11.4509 2.837 10.803C2.837 9.54506 2.05439 8.56426 2.05439 8.56426C2.05439 8.56426 2.35874 8.2698 2.35874 8.03121C2.35874 7.64742 1.96743 7.51949 1.96743 7.51949V6.36811Z" fill="black"/>
</svg>
