<svg width="17" height="15" viewBox="0 0 17 15" fill="none" xmlns="http://www.w3.org/2000/svg">
<path fill-rule="evenodd" clip-rule="evenodd" d="M4.81378 1.60397C4.53738 1.02974 4.24626 1.0182 3.98316 1.00821C3.76802 0.99956 3.52178 1 3.27601 1C3.03001 1 2.63013 1.08654 2.292 1.43157C1.95362 1.77659 1 2.61087 1 4.30761C1 6.00457 2.32263 7.64406 2.50713 7.87437C2.69164 8.10446 5.06026 11.6976 8.81135 13.08C11.9289 14.2289 12.5632 14.0003 13.2399 13.9429C13.9166 13.8854 15.4233 13.1086 15.7308 12.3034C16.0386 11.4982 16.0386 10.8081 15.9462 10.6637C15.8538 10.5201 15.6078 10.4338 15.2388 10.2614C14.8698 10.089 13.0554 9.25448 12.717 9.13955C12.3786 9.02439 12.1326 8.96714 11.8866 9.31239C11.6404 9.6572 10.9337 10.4338 10.7184 10.6637C10.503 10.8942 10.2876 10.923 9.9186 10.7504C9.5496 10.5776 8.36089 10.2137 6.95088 9.03881C5.85383 8.12488 5.11297 6.99594 4.8976 6.65069C4.68247 6.30588 4.89404 6.13548 5.05978 5.9471C5.35826 5.60784 5.85906 4.99788 5.98206 4.76801C6.10506 4.5377 6.04356 4.33645 5.95143 4.16383C5.85906 3.99143 5.1417 2.28604 4.81378 1.60397Z" stroke="black"/>
</svg>
